<svg width="420" height="163" viewBox="0 0 420 163" fill="none" xmlns="http://www.w3.org/2000/svg">
<circle cx="102.5" cy="78.5" r="58" stroke="black" stroke-width="3"/>
<path d="M92.7857 50.9762V95.2977C91.7738 103.595 84.8928 107.845 78.4167 107.845" stroke="black" stroke-width="4"/>
<path d="M103.714 50.9762V67.9762" stroke="black" stroke-width="4"/>
<path d="M103.714 107.792V79.9167L109.786 73.2381M128.202 51.7857L109.786 73.2381M109.786 73.2381L130.833 107.792" stroke="black" stroke-width="4"/>
<path d="M215.44 38.16C215.44 40.5627 213.831 42.9427 210.612 45.3C207.393 47.6573 203.449 49.4027 198.78 50.536C202.271 50.808 205.059 51.692 207.144 53.188C209.229 54.6387 210.272 56.6333 210.272 59.172C210.272 61.6653 209.003 63.8187 206.464 65.632C203.971 67.4453 201.001 68.352 197.556 68.352C195.561 68.352 193.589 68.012 191.64 67.332C189.691 66.6973 188.716 65.8813 188.716 64.884C188.716 64.7933 188.761 64.748 188.852 64.748L189.26 64.884C190.303 65.564 191.617 65.904 193.204 65.904C197.103 65.904 200.503 64.9747 203.404 63.116C206.305 61.2573 207.756 59.4893 207.756 57.812C207.756 56.0893 206.6 54.6387 204.288 53.46C202.021 52.2813 199.8 51.692 197.624 51.692C195.493 51.692 193.816 51.9413 192.592 52.44C192.139 52.3493 191.912 52.0547 191.912 51.556C191.912 50.9213 192.388 50.468 193.34 50.196L195.516 49.856C200.548 48.496 204.469 46.7507 207.28 44.62C210.091 42.444 211.496 40.0187 211.496 37.344C211.496 36.0293 210.748 34.964 209.252 34.148C207.756 33.332 205.489 32.924 202.452 32.924C199.46 32.924 196.944 33.196 194.904 33.74C192.909 34.2387 189.6 35.2813 184.976 36.868C180.352 38.4093 177.972 39.18 177.836 39.18C177.065 39.18 176.68 38.636 176.68 37.548C176.68 37.0493 176.839 36.732 177.156 36.596C185.679 33.196 193.884 31.496 201.772 31.496C210.884 31.496 215.44 33.7173 215.44 38.16ZM196.876 36.936C196.876 37.0267 196.853 37.0947 196.808 37.14C187.016 51.3293 182.12 61.824 182.12 68.624C182.12 69.4853 182.301 70.324 182.664 71.14C183.027 71.956 183.253 72.364 183.344 72.364V72.296C183.344 72.5227 183.208 72.636 182.936 72.636C182.165 72.636 181.485 72.024 180.896 70.8C180.352 69.576 180.08 68.148 180.08 66.516C180.08 60.6227 183.367 52.1227 189.94 41.016C191.844 37.4347 193.113 35.644 193.748 35.644C194.383 35.644 195.063 35.8027 195.788 36.12C196.513 36.392 196.876 36.664 196.876 36.936ZM229.059 55.5C229.331 55.5 229.467 55.6133 229.467 55.84C229.467 56.0213 229.421 56.2027 229.331 56.384C224.571 63.32 220.627 66.788 217.499 66.788C213.645 66.788 211.719 64.9973 211.719 61.416C211.719 58.6507 213.079 55.296 215.799 51.352C218.564 47.408 221.239 45.436 223.823 45.436C224.911 45.436 225.863 45.7987 226.679 46.524C227.54 47.204 227.971 48.0427 227.971 49.04C227.971 50.7627 226.905 52.4627 224.775 54.14C222.644 55.8173 220.581 56.656 218.587 56.656C218.179 56.656 217.975 56.5653 217.975 56.384L218.179 56.044C223.392 54.412 225.999 51.7373 225.999 48.02C225.999 47.476 225.817 47.204 225.455 47.204C224.911 47.204 224.004 47.7253 222.735 48.768C220.513 50.5813 218.587 52.848 216.955 55.568C215.323 58.288 214.507 60.5773 214.507 62.436C214.507 64.2947 215.209 65.224 216.615 65.224C218.201 65.224 219.992 64.3853 221.987 62.708C223.256 61.5293 224.729 60.0333 226.407 58.22C228.129 56.4067 229.013 55.5 229.059 55.5ZM245.358 65.972L246.038 65.836L246.174 65.904C246.174 66.312 245.608 66.516 244.474 66.516C243.386 66.516 242.48 66.0173 241.754 65.02C241.074 64.0227 240.734 62.6853 240.734 61.008C240.734 59.2853 241.052 57.336 241.686 55.16C241.686 55.296 241.074 56.2253 239.85 57.948C236.133 63.7053 233.209 66.584 231.078 66.584C230.172 66.584 229.333 66.1533 228.562 65.292C227.837 64.476 227.474 63.4107 227.474 62.096C227.474 60.736 228.268 58.696 229.854 55.976C231.486 53.2107 233.436 50.7627 235.702 48.632C237.969 46.5013 239.918 45.436 241.55 45.436H242.23C243.908 45.436 245.336 45.776 246.514 46.456C247.693 47.0907 248.282 47.952 248.282 49.04C248.282 49.5387 248.078 49.788 247.67 49.788C247.534 49.788 247.466 49.72 247.466 49.584C246.696 47.9067 245.585 47.068 244.134 47.068C241.596 47.068 238.649 49.1987 235.294 53.46C231.985 57.676 230.33 60.8947 230.33 63.116C230.33 63.9773 230.557 64.408 231.01 64.408C233.05 64.408 237.334 59.8067 243.862 50.604C243.953 50.5133 244.089 50.468 244.27 50.468C244.497 50.468 244.973 50.6947 245.698 51.148C246.424 51.556 246.786 51.9187 246.786 52.236C246.786 52.236 246.469 52.8253 245.834 54.004C244.338 57.1773 243.59 59.9653 243.59 62.368C243.59 64.7707 244.18 65.972 245.358 65.972ZM252.65 46.32L252.038 45.096C252.038 44.96 252.196 44.892 252.514 44.892C252.876 44.892 253.624 45.1187 254.758 45.572C255.891 46.0253 256.458 46.4107 256.458 46.728C256.004 47.6347 254.758 50.1507 252.718 54.276C250.723 58.4013 249.726 61.1893 249.726 62.64C249.726 64.0453 250.02 64.748 250.61 64.748C251.335 64.748 252.378 63.932 253.738 62.3C255.098 60.668 256.435 58.764 257.75 56.588L263.462 47.34C264.096 46.252 264.822 45.708 265.638 45.708C267.27 45.708 268.086 46.0253 268.086 46.66C268.086 46.4787 267.972 46.592 267.746 47C266.476 49.312 265.32 52.1 264.278 55.364C263.28 58.628 262.782 60.7587 262.782 61.756C262.782 64.5213 263.28 65.904 264.278 65.904C264.595 65.904 265.252 65.4733 266.25 64.612C266.34 64.612 266.386 64.7933 266.386 65.156C266.386 66.3347 265.706 66.924 264.346 66.924C263.031 66.924 261.988 66.312 261.218 65.088C260.492 63.9093 260.13 62.436 260.13 60.668C260.13 58.8547 260.492 56.452 261.218 53.46C257.682 59.2173 255.302 62.844 254.078 64.34C252.899 65.836 251.743 66.584 250.61 66.584C249.476 66.584 248.524 66.1533 247.754 65.292C247.028 64.476 246.666 63.5693 246.666 62.572C246.666 60.668 247.663 57.54 249.658 53.188C251.652 48.7907 252.65 46.5013 252.65 46.32ZM275.603 38.5L274.243 38.84C274.107 38.84 274.039 38.772 274.039 38.636C274.039 38.2733 274.311 38.0013 274.855 37.82C275.399 37.5933 275.807 37.48 276.079 37.48C278.074 37.48 279.071 38.6133 279.071 40.88C279.071 42.24 278.663 43.9627 277.847 46.048C278.028 46.2293 278.844 46.32 280.295 46.32C281.746 46.32 282.879 46.1613 283.695 45.844C284.511 45.4813 284.987 45.3 285.123 45.3C285.304 45.3 285.395 45.368 285.395 45.504C285.395 45.64 285.304 45.7987 285.123 45.98C282.992 47.7933 280.386 48.904 277.303 49.312C277.031 49.312 276.714 49.38 276.351 49.516C272.226 57.7667 270.163 62.98 270.163 65.156C270.163 65.8813 270.435 66.244 270.979 66.244L272.883 65.836L272.951 65.904C272.951 66.856 272.203 67.332 270.707 67.332C268.712 67.332 267.715 66.2667 267.715 64.136C267.715 62.3227 268.35 59.8067 269.619 56.588C270.344 54.956 271.41 52.4627 272.815 49.108C271.274 48.4733 270.503 47.5893 270.503 46.456C270.503 46.0933 270.594 45.844 270.775 45.708C271.5 46.0253 272.543 46.252 273.903 46.388C275.399 43.0787 276.147 40.948 276.147 39.996C276.147 38.9987 275.966 38.5 275.603 38.5ZM301.928 51.216C301.928 55.568 300.432 61.3253 297.44 68.488C294.085 76.2853 290.073 82.8813 285.404 88.276C280.734 93.6707 276.677 96.368 273.231 96.368C270.239 96.368 268.743 94.8947 268.743 91.948C268.743 88.3667 271.305 83.72 276.427 78.008C281.777 71.9787 287.602 67.1733 293.904 63.592C294.13 63.592 293.904 64 293.224 64.816C277.901 77.5547 270.239 86.7573 270.239 92.424C270.239 94.6 271.101 95.688 272.823 95.688C275.77 95.688 279.329 92.832 283.5 87.12C287.67 81.408 291.229 74.948 294.176 67.74C297.168 60.5773 298.663 54.888 298.663 50.672C298.663 49.0853 298.392 47.9973 297.848 47.408C291.818 53.7093 287.602 59.0133 285.2 63.32C284.429 65.224 283.749 66.176 283.16 66.176C281.8 66.176 281.119 65.7907 281.119 65.02C281.074 64.5667 281.981 61.8693 283.84 56.928L285.744 51.692C286.333 49.8787 286.673 48.0653 286.764 46.252V45.98C286.764 45.4813 286.696 45.1867 286.56 45.096C286.469 45.0053 286.174 44.96 285.675 44.96C285.222 44.96 284.996 44.8467 284.996 44.62C284.996 44.212 285.358 44.008 286.084 44.008C288.985 44.008 290.436 45.096 290.436 47.272C290.436 48.3147 289.076 52.168 286.356 58.832C287.942 56.656 290.232 53.9587 293.224 50.74C296.261 47.476 298.165 45.844 298.936 45.844C298.936 46.252 298.754 46.6147 298.392 46.932C300.432 47.1587 301.52 47.612 301.656 48.292C301.837 49.4707 301.928 50.4453 301.928 51.216ZM194.396 99.0356C189.33 97.5796 185.639 95.7954 183.321 93.6831C181.024 91.5503 179.876 88.9253 179.876 85.8081C179.876 82.2808 181.281 79.3687 184.09 77.0718C186.92 74.7544 190.591 73.5957 195.103 73.5957C198.179 73.5957 200.917 74.1904 203.316 75.3799C205.736 76.5693 207.603 78.21 208.915 80.3018C210.248 82.3936 210.915 84.6802 210.915 87.1616H204.978C204.978 84.4546 204.116 82.332 202.394 80.7939C200.671 79.2354 198.241 78.4561 195.103 78.4561C192.191 78.4561 189.915 79.1021 188.274 80.394C186.654 81.6655 185.844 83.4395 185.844 85.7158C185.844 87.541 186.613 89.0894 188.151 90.3608C189.709 91.6118 192.345 92.7603 196.057 93.8062C199.789 94.8521 202.701 96.0107 204.793 97.2822C206.905 98.5332 208.464 99.9995 209.469 101.681C210.494 103.363 211.007 105.342 211.007 107.618C211.007 111.248 209.592 114.16 206.762 116.354C203.932 118.528 200.148 119.615 195.411 119.615C192.334 119.615 189.463 119.031 186.797 117.862C184.131 116.672 182.07 115.052 180.614 113.001C179.179 110.951 178.461 108.623 178.461 106.019H184.398C184.398 108.726 185.393 110.869 187.382 112.448C189.392 114.006 192.068 114.786 195.411 114.786C198.528 114.786 200.917 114.15 202.578 112.878C204.239 111.607 205.07 109.874 205.07 107.68C205.07 105.485 204.301 103.793 202.763 102.604C201.225 101.394 198.436 100.205 194.396 99.0356ZM249.551 79.0713H235.155V119H229.279V79.0713H214.914V74.2109H249.551V79.0713ZM287.727 74.2109V104.665C287.706 108.89 286.373 112.345 283.728 115.032C281.103 117.718 277.534 119.226 273.022 119.554L271.454 119.615C266.552 119.615 262.646 118.292 259.733 115.647C256.821 113.001 255.345 109.361 255.304 104.727V74.2109H261.148V104.542C261.148 107.782 262.041 110.305 263.825 112.109C265.609 113.894 268.152 114.786 271.454 114.786C274.796 114.786 277.35 113.894 279.113 112.109C280.897 110.325 281.79 107.813 281.79 104.573V74.2109H287.727ZM297.047 119V74.2109H309.69C313.587 74.2109 317.032 75.0723 320.026 76.7949C323.021 78.5176 325.328 80.9683 326.948 84.147C328.588 87.3257 329.419 90.9761 329.439 95.0981V97.959C329.439 102.184 328.619 105.885 326.979 109.064C325.358 112.243 323.031 114.683 319.996 116.385C316.981 118.087 313.464 118.959 309.444 119H297.047ZM302.954 79.0713V114.17H309.167C313.72 114.17 317.258 112.755 319.78 109.925C322.323 107.095 323.595 103.065 323.595 97.8359V95.2212C323.595 90.1353 322.395 86.1875 319.996 83.3779C317.617 80.5479 314.233 79.1123 309.844 79.0713H302.954ZM344.728 119H338.822V74.2109H344.728V119ZM390.009 98.0513C390.009 102.44 389.271 106.275 387.794 109.556C386.318 112.817 384.226 115.309 381.519 117.031C378.812 118.754 375.654 119.615 372.044 119.615C368.517 119.615 365.39 118.754 362.662 117.031C359.935 115.288 357.812 112.817 356.294 109.618C354.797 106.398 354.028 102.676 353.987 98.4512V95.2212C353.987 90.9146 354.736 87.1104 356.233 83.8086C357.73 80.5068 359.842 77.9844 362.57 76.2412C365.318 74.4775 368.456 73.5957 371.983 73.5957C375.572 73.5957 378.73 74.4673 381.458 76.2104C384.206 77.9331 386.318 80.4453 387.794 83.7471C389.271 87.0283 390.009 90.853 390.009 95.2212V98.0513ZM384.134 95.1597C384.134 89.8481 383.067 85.7773 380.935 82.9473C378.802 80.0967 375.818 78.6714 371.983 78.6714C368.25 78.6714 365.308 80.0967 363.154 82.9473C361.021 85.7773 359.924 89.7148 359.863 94.7598V98.0513C359.863 103.199 360.939 107.249 363.093 110.202C365.267 113.135 368.25 114.601 372.044 114.601C375.859 114.601 378.812 113.217 380.904 110.448C382.996 107.659 384.072 103.67 384.134 98.4819V95.1597Z" fill="black"/>
</svg>
